<svg xmlns="http://www.w3.org/2000/svg" viewBox="0 -0.5 32 32" shape-rendering="crispEdges">
<metadata>Made with Pixels to Svg https://codepen.io/shshaw/pen/XbxvNj</metadata>
<path stroke="#eec39a" d="M9 4h9M19 4h2M8 5h1M6 7h3M5 8h1M7 8h1M5 9h3M5 10h2M4 11h3M4 12h2M4 13h1M4 14h2M5 15h1M4 16h1" />
<path stroke="#d9a066" d="M18 4h1M9 5h13M7 6h16M9 7h2M6 8h1M8 8h2M8 9h1M7 10h1M7 11h1M6 12h1M5 13h2M4 18h1" />
<path stroke="#df7126" d="M11 7h8M20 7h4M10 8h1M12 8h6M21 8h4M9 9h1M13 9h6M20 9h5M8 10h3M12 10h12M8 11h16M7 12h1M9 12h15M10 13h5M16 13h5M22 13h2M6 14h2M9 14h5M17 14h3M23 14h1M4 15h1M6 15h9M16 15h5M22 15h2M5 16h19M4 17h16M5 18h12M19 18h1M22 18h2M5 19h3M9 19h5M20 19h2M5 20h2M10 20h3M17 20h1M23 20h1M6 21h2M9 21h5M17 21h1M20 21h1M7 22h6M15 22h1M18 22h1M8 23h4" />
<path stroke="#8f563b" d="M19 7h1M11 8h1M18 8h3M10 9h3M19 9h1M11 10h1M8 12h1M7 13h3M15 13h1M21 13h1M8 14h1M14 14h3M20 14h3M15 15h1M21 15h1M8 19h1M14 19h1M7 20h3M13 20h1M19 20h1M8 21h1M16 21h1M22 21h1M12 23h1M19 23h1M9 24h1" />
<path stroke="#663931" d="M10 24h2" />
</svg>