<svg xmlns="http://www.w3.org/2000/svg" viewBox="0 -0.5 32 32" shape-rendering="crispEdges">
<metadata>Made with Pixels to Svg https://codepen.io/shshaw/pen/XbxvNj</metadata>
<path stroke="#eec39a" d="M9 4h9M19 4h1M8 5h1M21 5h1M21 6h1M6 7h3M19 7h1M5 8h1M7 8h1M5 9h3M5 10h2M4 11h3M4 12h2M4 13h1M4 14h2M5 15h1M4 16h1" />
<path stroke="#d9a066" d="M18 4h1M9 5h10M7 6h11M9 7h2M6 8h1M8 8h2M8 9h1M7 10h1M7 11h1M6 12h1M5 13h2M4 18h1" />
<path stroke="#df7126" d="M11 7h7M10 8h1M12 8h5M9 9h1M13 9h3M18 9h1M20 9h1M8 10h3M12 10h3M8 11h7M18 11h1M21 11h1M7 12h1M9 12h6M10 13h4M16 13h1M18 13h1M20 13h1M6 14h2M9 14h5M19 14h1M4 15h1M6 15h9M16 15h1M20 15h1M5 16h10M18 16h1M4 17h12M5 18h12M5 19h3M9 19h5M5 20h2M10 20h3M6 21h2M9 21h5M7 22h6M8 23h4" />
<path stroke="#8f563b" d="M11 8h1M10 9h3M11 10h1M17 11h1M8 12h1M16 12h1M19 12h1M7 13h3M8 14h1M17 15h1M8 19h1M14 19h1M7 20h3M13 20h1M8 21h1M12 23h1M9 24h1" />
<path stroke="#663931" d="M10 24h2" />
</svg>