<svg xmlns="http://www.w3.org/2000/svg" viewBox="0 -0.5 32 32" shape-rendering="crispEdges">
<metadata>Made with Pixels to Svg https://codepen.io/shshaw/pen/XbxvNj</metadata>
<path stroke="#eec39a" d="M9 4h9M19 4h1M8 5h1M5 13h1M3 16h1" />
<path stroke="#d9a066" d="M18 4h1M9 5h10M8 6h10M6 7h1M9 7h2M7 9h1M4 11h1M4 13h1M4 15h1" />
<path stroke="#df7126" d="M11 7h7M6 8h1M10 8h1M12 8h5M13 9h3M5 10h2M12 10h3M9 11h1M11 11h4M5 12h1M9 12h1M11 12h4M13 13h1M5 14h2M8 14h1M5 16h1" />
<path stroke="#8f563b" d="M11 8h1M10 9h3M7 10h1M11 10h1M7 12h1M10 13h1" />
</svg>