<svg xmlns="http://www.w3.org/2000/svg" viewBox="0 -0.5 32 32" shape-rendering="crispEdges">
<metadata>Made with Pixels to Svg https://codepen.io/shshaw/pen/XbxvNj</metadata>
<path stroke="#eec39a" d="M9 4h9M19 4h1M8 5h1M6 7h3M5 8h1M7 8h1M5 9h3M5 10h2M4 11h3M4 12h2M4 13h1M4 14h2M5 15h1M4 16h1" />
<path stroke="#d9a066" d="M18 4h1M9 5h10M7 6h11M9 7h2M6 8h1M8 8h2M8 9h1M7 10h1M7 11h1M6 12h1M5 13h2M4 18h1" />
<path stroke="#df7126" d="M11 7h7M10 8h1M12 8h5M9 9h1M13 9h3M8 10h3M12 10h3M8 11h7M7 12h1M9 12h6M10 13h4M6 14h2M9 14h2M4 15h1M6 15h2M12 15h1M14 15h1M5 16h2M10 16h1M15 16h1M4 17h3M11 17h1M13 17h1M5 18h1M8 18h1M5 19h1M11 19h1M7 20h1M8 21h1M10 21h1" />
<path stroke="#8f563b" d="M11 8h1M10 9h3M11 10h1M8 12h1M7 13h3M8 14h1M13 18h1M9 20h1M12 21h1M9 22h1" />
</svg>